<svg xmlns="http://www.w3.org/2000/svg" width="512" height="512" style="overflow: visible;" class="thumb" viewBox="0 0 512 512" data-bbox="48.54315477558819 27.069469335797066 414.9136904488237 436.38737588861477"><path transform="matrix(4.149137020111084, 0, 0, 4.149137020111084, 48.543155670166016, 48.543155670166016)" data-type="circle" data-cx="50" data-cy="50" data-r="50" d="M50 50m-50 0a50 50 0 1 0 100 0a50 50 0 1 0 -100 0" fill="rgba(253,254,255,1)" stroke="#000000" stroke-width="1" data-uid="o_f23n2d3kg_5"></path><path text="Go Cheetah" fill="#ffa800" space="preserve" text-anchor="middle" offset="0.5" font-scale="contain" font-size="48" font-family="Allan" transform="matrix(1.3506027460098267, -0.5767035484313965, 0.5767035484313965, 1.3506027460098267, 258.5554504394531, 268.9521484375)" data-fl-textpath="" path="M-91.04195712899525 16.392904664695862C-99.992939595039 -132.92149632532164 91.09517547188304 -150.50067533691214 97.1918187608201 10.87371858701917" font-style="normal" font-weight="700" letter-spacing="0" stroke="#000000" stroke-width="1" data-uid="o_f23n2d3kg_6" d="M-79.17420786382237-80.21580314892236L-79.17420786382237-80.21580314892236Q-79.17420786382237-80.21580314892236 -72.74514271098727-87.9664173994577L-72.74514271098727-87.9664173994577Q-72.26368989603391-88.51551045803109 -71.67785068578662-87.63978651766126L-71.67785068578662-87.63978651766126L-70.13243692071399-85.38344073415999Q-69.60178723266277-84.56648852713002 -69.60597205329516-84.1541992024122L-69.60597205329516-84.1541992024122Q-69.4505475106496-83.93432830496685 -69.27316768102334-83.6312831003492L-69.27316768102334-83.6312831003492Q-67.40998814132509-80.7085853734452 -66.51517796893778-77.96550047585411L-66.51517796893778-77.96550047585411Q-64.51536873054238-71.82425768550391 -67.68840287250767-67.9989793513271L-67.68840287250767-67.9989793513271Q-69.88725243633158-65.37946401530186 -72.48420647277811-64.97408797680916L-72.48420647277811-64.97408797680916Q-76.15508464190944-64.43311342343812 -81.08099638008483-68.51911312335318L-81.08099638008483-68.51911312335318Q-83.84412499571758-70.8111035800243 -86.99468174522691-75.12648214605082L-86.99468174522691-75.12648214605082Q-90.82588583692609-80.34425707486362 -92.02775199940501-85.23894988723583L-92.02775199940501-85.23894988723583Q-93.45591028275773-91.11389362464227 -90.59571049281718-94.56203184136504L-90.59571049281718-94.56203184136504Q-88.88189595509037-96.51849286328095 -86.69435878528904-97.35442415874587L-86.69435878528904-97.35442415874587Q-86.02013266652763-97.58770326363937 -85.2789057625321-97.63548063059488L-85.2789057625321-97.63548063059488Q-82.30122939748776-97.84198357259876 -78.24504895058396-94.47741819469995L-78.24504895058396-94.47741819469995Q-77.38301439640327-93.76236824721482 -77.68428521834302-92.80396546557874L-77.68428521834302-92.80396546557874L-79.84422252238224-87.70957925695461Q-79.8951200803634-87.56990306502644 -79.98450132379904-87.46214874575385L-79.98450132379904-87.46214874575385Q-80.3266328233598-87.01836271960127 -80.93222776668904-87.57266837951649L-80.93222776668904-87.57266837951649Q-82.57705965555745-89.06696689633351 -82.84644545373892-89.29042000492262L-82.84644545373892-89.29042000492262Q-84.58197094860276-90.69104531408907 -85.36306419529781-90.15663597662632L-85.36306419529781-90.15663597662632Q-85.55101322008758-90.03969511943527 -85.68508508524104-89.87806364052638L-85.68508508524104-89.87806364052638Q-87.59943995855201-87.71116599203661 -81.58817774386794-79.29485286892198L-81.58817774386794-79.29485286892198Q-78.92811975785996-75.59421893524586 -76.36886595600214-73.43236325604889L-76.36886595600214-73.43236325604889Q-73.64422102582388-71.17229467203336 -72.54749126371674-71.97757960850517L-72.54749126371674-71.97757960850517Q-71.94551538042856-72.45268489782471 -71.82747644784281-73.4721292613846L-71.82747644784281-73.4721292613846Q-71.60977165850827-75.70815355121259 -73.76560464592848-78.95155980550004L-73.76560464592848-78.95155980550004L-75.98098260822617-76.28079203495807Q-76.54298500523228-75.68158146615993 -77.34678014087652-76.68612782144409L-77.34678014087652-76.68612782144409L-79.19648117844136-79.31180984172596Q-79.2465986886661-79.39235942377871 -79.31342203563243-79.49975886651572L-79.31342203563243-79.49975886651572Q-79.4742734667849-79.85405650565012 -79.17420786382237-80.21580314892236ZM-58.62141914582606-95.69748096188206L-58.62141914582606-95.69748096188206Q-59.85370907341451-98.15332328873535 -60.891170136208885-99.46197700274281L-60.891170136208885-99.46197700274281Q-62.51880365987431-101.5150744462755 -63.43564488465799-100.7882304681501L-63.43564488465799-100.7882304681501Q-63.98418236957131-100.35336654961353 -64.08429808987728-99.6104151093783L-64.08429808987728-99.6104151093783Q-64.23483079694216-98.061822230632 -63.47560454599853-95.63930793761368L-63.47560454599853-95.63930793761368Q-61.828392612576316-90.24553441192765 -60.095149280123444-88.05922072205887L-60.095149280123444-88.05922072205887Q-58.26250848057648-85.74752703563848 -57.275141007732515-86.5302820890043L-57.275141007732515-86.5302820890043Q-56.71551945685253-86.99945553218996 -56.59648342079543-87.78292883876767L-56.59648342079543-87.78292883876767Q-56.41602216794767-89.036218005808 -56.8830609045664-90.78432407195432L-56.8830609045664-90.78432407195432Q-57.65541003903992-93.77068922284896 -58.62141914582606-95.69748096188206ZM-69.29174147089942-94.89509609223336L-69.29174147089942-94.89509609223336Q-69.68345807111953-96.37112390535613 -69.72854831799552-97.82843885746384L-69.72854831799552-97.82843885746384Q-69.81104423383293-100.00901089797755 -69.16146532066568-101.74905320653457L-69.16146532066568-101.74905320653457Q-68.38374934017173-103.85866403644712 -66.510885641682-105.34341370116482L-66.510885641682-105.34341370116482Q-66.1190731524582-105.6540307858338 -65.74942879516773-105.8960288212046L-65.74942879516773-105.8960288212046Q-63.178157375045494-107.4495291540216 -60.40699796418859-106.17537236633055L-60.40699796418859-106.17537236633055Q-59.81618308604059-105.92912497089465 -59.20920496291655-105.4532283875398L-59.20920496291655-105.4532283875398Q-58.22701255808564-104.71329725568192 -56.31982365821812-102.30756857184781L-56.31982365821812-102.30756857184781Q-55.648890755333134-101.46125359512442 -55.03175427419039-100.45743958663343L-55.03175427419039-100.45743958663343Q-52.39116998096692-96.14468935153037 -51.71246098750371-91.05505733121768L-51.71246098750371-91.05505733121768Q-51.59133035101719-90.19399556287331 -51.54044267191994-89.3410533349844L-51.54044267191994-89.3410533349844Q-51.317010202034425-84.06914875206554 -54.03618887724756-81.91346618446285L-54.03618887724756-81.91346618446285Q-54.58472636216087-81.47860226592628 -54.99976431006709-81.21337877187307L-54.99976431006709-81.21337877187307Q-57.12818388999841-79.8578235012312 -59.729495421635896-80.69237626491353L-59.729495421635896-80.69237626491353Q-62.30567429582886-81.55961464515386 -64.61666540576604-84.47469956497889L-64.61666540576604-84.47469956497889Q-67.79117201108296-88.47902320484609 -69.29174147089942-94.89509609223336ZM-25.583209793882496-125.0465670367793L-25.583209793882496-125.0465670367793Q-25.226289350802492-124.28295208321201 -26.04675714684576-123.53186447470291L-26.04675714684576-123.53186447470291L-29.48812960857159-120.95897590741613Q-29.762982409163083-120.75075501987835 -30.205469719798327-120.73643789981918L-30.205469719798327-120.73643789981918Q-30.97197688476029-120.76225971350375 -31.269551738748483-121.4518604721126L-31.269551738748483-121.4518604721126Q-31.500222978836412-121.93164248406835 -31.703154866306477-122.33638764963285L-31.703154866306477-122.33638764963285Q-32.447579337507634-123.83098866886068 -33.72379710682304-125.23561253498416L-33.72379710682304-125.23561253498416Q-34.02110025996469-125.23232085881064 -34.283729222334-125.13523312464808L-34.283729222334-125.13523312464808Q-36.974653435186625-124.10847761300789 -35.91427765022203-113.3379575143933L-35.91427765022203-113.3379575143933Q-35.436236894321524-108.43983776946077 -34.25731440806187-105.25077179783342L-34.25731440806187-105.25077179783342Q-32.95009741594456-101.71466041164665 -31.69971763329566-101.79308489215423L-31.69971763329566-101.79308489215423L-31.305774189741694-101.93871649339806Q-31.019320737581996-102.37511587440792 -30.7828332687152-102.88899686945344L-30.7828332687152-102.88899686945344Q-30.229133019743855-104.15982968075832 -29.790049516206874-107.70182144767728L-29.790049516206874-107.70182144767728Q-29.6989699267088-108.40716144255695 -29.552187910099853-108.75994330093435L-29.552187910099853-108.75994330093435Q-29.30245395157809-109.35335121288115 -28.32897227238628-109.28676727879885L-28.32897227238628-109.28676727879885L-24.135297634832916-109.04594984931816Q-23.90365172228359-109.02496959195105 -23.699521440477014-108.87654173725534L-23.699521440477014-108.87654173725534Q-23.134028624051815-108.41392107778206 -23.352108367128224-107.33112782620552L-23.352108367128224-107.33112782620552Q-24.30759741831606-102.73465736801042 -25.589567264456996-100.40565472447707L-25.589567264456996-100.40565472447707Q-27.296415625000456-97.32254449710761 -30.860665828583947-96.0049252477586L-30.860665828583947-96.0049252477586Q-32.1831902462294-95.51601915786857 -34.01782205690131-95.89328049867981L-34.01782205690131-95.89328049867981Q-35.93891562262896-96.30254754074383 -37.54671127107952-97.88311489230576L-37.54671127107952-97.88311489230576Q-39.433897769603014-99.7868551896653 -40.69257089463905-103.19165209466742L-40.69257089463905-103.19165209466742Q-42.076071106455515-106.9341148084301 -42.681207973877186-112.43559727879088L-42.681207973877186-112.43559727879088Q-43.4071772802909-119.12913659414156 -41.97657203056107-123.70934058735467L-41.97657203056107-123.70934058735467Q-40.14091810843071-129.5587315537859 -36.07016919170641-131.06359143330556L-36.07016919170641-131.06359143330556Q-32.18701239096019-132.49910293128056 -29.369551101287048-130.29957755493382L-29.369551101287048-130.29957755493382Q-27.256455134032187-128.64993352267373 -25.583209793882496-125.0465670367793ZM-8.295067675018906-137.09962866948925L-8.295067675018906-137.09962866948925Q-8.295067675018906-137.09962866948925 -10.307056311950124-121.43411553634039L-10.307056311950124-121.43411553634039L-7.929992144701152-125.75865781787505Q-7.800666928181646-126.0164852570125 -7.583147341988423-126.37590872539253L-7.583147341988423-126.37590872539253Q-6.42863718145494-128.12084605642335 -4.711724048492506-128.33323554265354L-4.711724048492506-128.33323554265354L-2.5283663071529947-128.6033262187844Q-2.131392172363995-128.65243361444456 -1.7432175802909065-128.60976645999418L-1.7432175802909065-128.60976645999418Q 0.13432333094397464-128.33821512665315 -0.2049632258659848-125.86787413149315L-0.2049632258659848-125.86787413149315L-3.2176171387851973-103.62979156124955Q-3.3450013567101635-102.94900285612611 -4.2977392802037695-102.83114510654174L-4.2977392802037695-102.83114510654174L-8.059069207329562-102.36585253266175Q-8.24763192135434-102.34252651972318 -8.553750568211232-102.53641147026474L-8.553750568211232-102.53641147026474Q-8.815261062023207-102.69550974689344 -8.74015972920526-103.22876371060018L-8.74015972920526-103.22876371060018Q-7.322349377054088-112.04955243980875 -6.7681907403876655-116.69270957751236L-6.7681907403876655-116.69270957751236Q-6.593941942149343-118.13501237384624 -6.6579941109437515-117.51243922981196L-6.6579941109437515-117.51243922981196Q-6.564168882040167-118.13869542852075 -6.891672543241094-118.09818182710112L-6.891672543241094-118.09818182710112Q-7.1497057308539445-118.06626201992202 -7.537784254650157-117.21215719066032L-7.537784254650157-117.21215719066032Q-9.092656593855715-113.73496406850367 -11.15122919705588-108.22052131901813L-11.15122919705588-108.22052131901813Q-12.018756103768885-105.86620675504649 -12.393330093758555-104.90293403871782L-12.393330093758555-104.90293403871782L-12.651479767530741-102.83560272856667Q-12.81528984121087-101.7976401763708 -13.92436204883707-101.64029076178294L-13.92436204883707-101.64029076178294L-14.668688551566447-101.54821439492014L-17.50705361530781-101.19709651595001Q-17.784935509660116-101.16272133898791 -18.071411198252942-101.19781663561386L-18.071411198252942-101.19781663561386Q-19.042358646643716-101.39006921027396-18.901977460139857-102.5359719646453L-18.901977460139857-102.5359719646453L-14.583321782512385-136.37212590001587Q-14.428208377310476-137.3989364139505 -13.320363854575781-137.56621018190813L-13.320363854575781-137.56621018190813L-9.44986604038301-138.04500728959468Q-8.219246222537105-138.19724021614115 -8.295067675018906-137.09962866948925ZM 10.14165049500176-114.98944090769612L 10.14165049500176-114.98944090769612Q 11.570296165019728-115.74141933128213  12.81676023196448-117.4221118462341L 12.81676023196448-117.4221118462341Q 14.53917766738914-119.74488565746609  14.725907258723657-121.94698285325921L 14.725907258723657-121.94698285325921Q 14.761394330379991-122.36548096286697  14.745195415331095-122.6478594237156L 14.745195415331095-122.6478594237156Q 14.692869103823408-123.21430620596792  14.224549790690931-123.25401792901191L 14.224549790690931-123.25401792901191Q 14.11494314293652-123.26331216206475  13.957875159864539-123.18630794988321L 13.957875159864539-123.18630794988321Q 13.290416272408924-122.77121924423524  12.544029023891989-121.18862451555347L 12.544029023891989-121.18862451555347Q 11.43956943479944-118.9338808458514  10.14165049500176-114.98944090769612ZM 8.614669575916466-110.00062047870196L 8.614669575916466-110.00062047870196Q 8.413490295787401-109.28505993112634  8.381382945241192-108.90641878433837L 8.381382945241192-108.90641878433837Q 8.339981361642138-108.418170989796  8.944070478282867-108.08594164257299L 8.944070478282867-108.08594164257299Q 8.944070478282867-108.08594164257299  9.374397611776061-108.18995394078591L 9.374397611776061-108.18995394078591Q 10.16952684521548-108.4537142526792  11.96166428272512-110.17845869898896L 11.96166428272512-110.17845869898896Q 12.198621114062108-110.36911928768713  12.423923844139084-110.54069632525295L 12.423923844139084-110.54069632525295Q 12.802244828525819-110.85987219021247  13.283383335597069-110.49792504350005L 13.283383335597069-110.49792504350005L 15.456023528602756-108.89863314027032Q 15.768789796592884-108.6814298677178  15.833120054611447-108.37489827407163L 15.833120054611447-108.37489827407163Q 15.923118383357192-108.01601068606811  15.787493819624732-107.83682927600451L 15.787493819624732-107.83682927600451Q 15.604407920574701-107.57134942070651  15.33738344449744-107.26280780410404L 15.33738344449744-107.26280780410404Q 14.013070235093615-105.72921903151912  11.51262677725525-104.05450039420917L 11.51262677725525-104.05450039420917Q 8.67389422047537-102.17764198956647  7.627648946456002-102.2663596687073L 7.627648946456002-102.2663596687073L 7.368578688127396-102.28832785592313Q 2.934550940125545-103.84855153538373  2.602149844749526-106.55631989914619L 2.602149844749526-106.55631989914619Q 2.517570942919841-107.21582456885317  2.6468452753821996-108.74035339670996L 2.6468452753821996-108.74035339670996Q 2.98566231667243-112.73601391939344  5.309812175003076-118.24935477916456L 5.309812175003076-118.24935477916456Q 7.734129208259489-124.11549379237101  9.829243595679745-125.74429571514267L 9.829243595679745-125.74429571514267Q 10.540114089690707-126.31627748123718  11.299785934323431-126.75365453650222L 11.299785934323431-126.75365453650222Q 13.377651870942188-127.94234000770119  15.18117943853748-127.78940762746795L 15.18117943853748-127.78940762746795Q 16.13774654621233-127.7082943208249  17.097838614773103-127.19533894275901L 17.097838614773103-127.19533894275901Q 20.105785166439222-125.50514441480671  19.822733523466084-122.16712377864968L 19.822733523466084-122.16712377864968Q 19.763588404038863-121.46962692930343  19.53656613055718-120.68600655734824L 19.53656613055718-120.68600655734824Q 18.588270228559796-117.31407315316378  15.33738979344227-114.12735440238421L 15.33738979344227-114.12735440238421Q 12.100698250417349-110.98961192485184  8.614669575916466-110.00062047870196ZM 27.764398718280233-112.02188601604325L 27.764398718280233-112.02188601604325Q 29.306065632336193-112.50122214665014  30.837662355356503-113.92691898610565L 30.837662355356503-113.92691898610565Q 32.954146727025496-115.8973234888616  33.538635620754015-118.02863124071443L 33.538635620754015-118.02863124071443Q 33.64971495802369-118.43367615283127  33.68519214362091-118.71428507874437L 33.68519214362091-118.71428507874437Q 33.73685866185742-119.28079242282148  33.28359411734573-119.4050954907185L 33.28359411734573-119.4050954907185Q 33.177510926077034-119.43418769809864  33.00904931376324-119.38706355166993L 33.00904931376324-119.38706355166993Q 32.27717887769098-119.10041801306275  31.25516099789686-117.68014358416488L 31.25516099789686-117.68014358416488Q 29.758693094950793-115.66413668550304  27.764398718280233-112.02188601604325ZM 25.354746281604413-107.39440558556899L 25.354746281604413-107.39440558556899Q 25.02666484373961-106.7274253983606  24.92616449097181-106.36095619215965L 24.92616449097181-106.36095619215965Q 24.79657193082386-105.88840379469002  25.33008640748599-105.45175484737429L 25.33008640748599-105.45175484737429Q 25.33008640748599-105.45175484737429  25.772157765359378-105.47569048081023L 25.772157765359378-105.47569048081023Q 26.602016726380686-105.59029460295523  28.678188194394707-106.95997048994622L 28.678188194394707-106.95997048994622Q 28.945894245566933-107.10430853124431  29.198666878009245-107.23200346570995L 29.198666878009245-107.23200346570995Q 29.628770419164663-107.47697477808258  30.035978793577254-107.03348707835659L 30.035978793577254-107.03348707835659L 31.8811726800498-105.06540183596377Q 32.14917207747198-104.79489061072286  32.15662503201868-104.48177010122447L 32.15662503201868-104.48177010122447Q 32.179786035374946-104.11249572095483  32.01380874124339-103.96099807135997L 32.01380874124339-103.96099807135997Q 31.785453026066715-103.73328406795625  31.466722168430927-103.4785084011614L 31.466722168430927-103.4785084011614Q 29.885356552856425-102.21162924754073  27.121821558709915-101.02008640897904L 27.121821558709915-101.02008640897904Q 23.988851756350524-99.69136513741599  22.97623947605845-99.96906348059017L 22.97623947605845-99.96906348059017L 22.725497387605174-100.03782687985235Q 18.649590882478122-102.37916969145917  18.81567821515575-105.10220384437096L 18.81567821515575-105.10220384437096Q 18.852571742605583-105.76608551126071  19.25721789980225-107.24160626254346L 19.25721789980225-107.24160626254346Q 20.317761096115078-111.10882078061127  23.60674804011644-116.10693691393476L 23.60674804011644-116.10693691393476Q 27.05845332998748-121.43372117762297  29.415073295971354-122.65390244937161L 29.415073295971354-122.65390244937161Q 30.21819144948802-123.08691657326594  31.04479146224743-123.37869117618082L 31.04479146224743-123.37869117618082Q 33.30433045166865-124.16925019060376  35.04988114436261-123.69055114189399L 35.04988114436261-123.69055114189399Q 35.97569808634393-123.43665551384902  36.826366650846-122.75749206270638L 36.826366650846-122.75749206270638Q 39.476360869301274-120.54796029281627  38.59037091726936-117.31724492236062L 38.59037091726936-117.31724492236062Q 38.40523868848657-116.64217006883257  38.039356174785546-115.91297188852229L 38.039356174785546-115.91297188852229Q 36.493064360012255-112.77001442403679  32.71638078247093-110.22834938805552L 32.71638078247093-110.22834938805552Q 28.962564862035922-107.73225923834363  25.354746281604413-107.39440558556899ZM 58.45697281948985-120.18108643800736L 54.74758075158754-115.59182609601504L 57.045678869852026-114.53369328826865Q 57.76124059334397-114.12715741054906  57.250734953174685-113.30533991782009L 57.250734953174685-113.30533991782009L 55.42828971566199-111.2600787226992Q 54.70612113271688-110.4806734764973  53.88933457879976-110.83473523006607L 53.88933457879976-110.83473523006607L 51.700237161796835-111.84267992044899L 38.97023216497116-96.12622126142554Q 38.29348054088503-95.32590429965553  37.258692584444795-95.78034228795123L 37.258692584444795-95.78034228795123L 33.9795881548263-97.2901681519688Q 33.70708640167241-97.41563844537747  33.50019461740106-97.58796310873421L 33.50019461740106-97.58796310873421Q 32.80325860268988-98.25014147699952 33.49876582571046-99.16292277760014L 33.49876582571046-99.16292277760014L 45.932283386706146-114.49846779759902L 44.31543965132639-115.24292487182375Q 43.60549768203717-115.6138458880007  44.229775181972485-116.51538768019589L 44.229775181972485-116.51538768019589L 46.02771517619431-118.62697754974387Q 46.17076343775571-118.77028559161265  46.3138116993171-118.91359363348141L 46.3138116993171-118.91359363348141Q 46.76327938417854-119.26810569288885  47.33553306580171-119.00461807673067L 47.33553306580171-119.00461807673067L 48.97054358472506-118.25179631627869L 52.72809754351085-122.8739265877891Q 53.40484916759699-123.67424354955914  54.439637124037226-123.21980556126344L 54.439637124037226-123.21980556126344L 57.97307652326601-121.59287409006446Q 59.1364693756005-121.0351850448636  58.45697281948985-120.18108643800736L 58.45697281948985-120.18108643800736ZM 52.81070662778939-87.19735464497909L 53.522735892171966-90.30925347473928L 53.54720309088429-90.29189386105774L 53.59294959550776-90.52918536388651L 52.92162430145957-90.34338345439383Q 51.64394667733244-90.0115101520557  50.77269120209243-89.82042405401523L 50.77269120209243-89.82042405401523Q 48.86496929778369-89.48190206681113  47.9841501441402-90.10684815934613L 47.9841501441402-90.10684815934613L 47.71501095830469-90.29780390984294Q 47.091485015445386-90.80150560587087  46.70348283228938-92.9159923771386L 46.70348283228938-92.9159923771386Q 46.25729892175009-95.41507619285503  47.50140456892625-97.16855876723791L 47.50140456892625-97.16855876723791Q 49.920177408552426-100.5776551211544  56.806995240844586-105.25524425924922L 56.806995240844586-105.25524425924922Q 61.34243804584757-108.36416023793807  63.861294119437034-108.44073752269988L 63.861294119437034-108.44073752269988Q 65.86059593135516-108.49357940817784  67.62565158152573-107.26578522680991L 67.62565158152573-107.26578522680991Q 69.27310962815523-106.0969045722537  70.01914536130101-103.9858785930508L 70.01914536130101-103.9858785930508L 70.32400847319167-104.26002906817047Q 70.76223485590434-104.63573858028663  71.00267080235305-104.69811289916318L 71.00267080235305-104.69811289916318Q 71.51037908897307-104.79155965243679  71.88554280256196-104.52537890932003L 71.88554280256196-104.52537890932003L 74.33226267379389-102.78941754116725Q 75.69427006877966-101.82306571289556  74.51769258148417-100.76961167194764L 74.51769258148417-100.76961167194764L 60.33912961187455-89.70313743139505Q 61.259319484539176-89.85950430207245  61.925633489303195-90.15921357295899L 61.925633489303195-90.15921357295899Q 62.742943277834385-90.49892625975636  63.07080998958045-89.75132782521493L 63.07080998958045-89.75132782521493L 63.97207754716789-87.44433480623103Q 64.22576741416731-86.62675211843622  63.6081149075643-86.37834643998458L 63.6081149075643-86.37834643998458Q 62.56772878626593-86.00072663302298  61.522331375683386-85.73701418745523L 61.522331375683386-85.73701418745523Q 56.30217900853785-84.46264796702059  53.20883049205247-86.28955654589303L 53.20883049205247-86.28955654589303Q 52.739488225761505-86.56125092764  52.81070662778939-87.19735464497909L 52.81070662778939-87.19735464497909ZM 66.35076544004477-100.92388761440242L 66.94919148730204-101.36985427903558Q 66.88736296695276-101.43824458588838  66.8347383273809-101.53688862934736L 66.8347383273809-101.53688862934736Q 66.27800874497382-102.23842421082047  65.78524742784386-102.56351848074897L 65.78524742784386-102.56351848074897Q 65.34483785102212-102.87599152701645  64.97864856812822-102.87831727284549L 64.97864856812822-102.87831727284549Q 63.94532658267942-102.83900220718189  60.953425796475486-100.9032776179099L 60.953425796475486-100.9032776179099Q 57.12977060159636-98.41738523273432  54.526746349696865-95.92374036146194L 54.526746349696865-95.92374036146194Q 53.94964305753197-95.35229325964721  53.78051241147359-95.16575955072608L 53.78051241147359-95.16575955072608Q 53.572197047295255-94.87215316617825  53.80055756861024-94.71013010515065L 53.80055756861024-94.71013010515065Q 53.93920502798005-94.61175896095533  54.082317978106744-94.57152609496207L 54.082317978106744-94.57152609496207Q 55.02332825651771-94.39432661436203  57.56100754264561-95.49976039381576L 57.56100754264561-95.49976039381576Q 62.06605405932246-97.56350841200447  66.35076544004477-100.92388761440242L 66.35076544004477-100.92388761440242ZM 95.58475194748323-93.93765688500568L 95.58475194748323-93.93765688500568Q 95.58475194748323-93.93765688500568  81.58713428488561-86.62170856836653L 81.58713428488561-86.62170856836653L 86.49382591131389-87.14751964008211Q 86.77926719547366-87.18903196713335  87.19849586694235-87.21636913996818L 87.19849586694235-87.21636913996818Q 89.29014616761826-87.26832123022787  90.4469498412614-85.9819677560048L 90.4469498412614-85.9819677560048L 91.918029657455-84.34614252866913Q 92.18549871494474-84.04871976006264  92.37267419662355-83.70598759195128L 92.37267419662355-83.70598759195128Q 93.22456667388103-82.01094210371443  91.00464400104335-80.8753174621091L 91.00464400104335-80.8753174621091L 71.0446512820381-70.61826668436322Q 70.41348245865528-70.33308969302355  69.7715567206799-71.04690433767912L 69.7715567206799-71.04690433767912L 67.23728740096456-73.86498507022557Q 67.11023959865693-74.00626088531367  67.09402935036283-74.3682515313948L 67.09402935036283-74.3682515313948Q 67.07482373095706-74.67375299486633  67.55508750026691-74.91736480059072L 67.55508750026691-74.91736480059072Q 75.5998007697497-78.80311934917036  79.72446255440462-81.0061093995808L 79.72446255440462-81.0061093995808Q 81.00691323904603-81.68869290470147  80.45972934679972-81.38490056104189L 80.45972934679972-81.38490056104189Q 81.02697341835776-81.66638619705599  80.80631144592871-81.91175998115634L 80.80631144592871-81.91175998115634Q 80.63245655856039-82.10508478075054  79.70996142592247-81.93448955731401L 79.70996142592247-81.93448955731401Q 75.96868075364262-81.21942387415953  70.26852403239769-79.75142750044249L 70.26852403239769-79.75142750044249Q 67.84141855713351-79.1153779646808  66.83713216312881-78.8712287504346L 66.83713216312881-78.8712287504346L 64.99412413336664-77.89972404008465Q 64.0492165759552-77.43999617716275  63.28543207655359-78.25940647638643L 63.28543207655359-78.25940647638643L 62.78392759376032-78.81707416752359L 60.87152383270865-80.94364696305996Q 60.68429549246582-81.1518429010845  60.54911613672913-81.40684592416976L 60.54911613672913-81.40684592416976Q 60.15106649729826-82.31307794994954 61.17107858963925-82.8537953728963L 61.17107858963925-82.8537953728963L 91.38923195878384-98.67780583038956Q 92.32001722054288-99.13828253608939  93.09123728915964-98.32555896330294L 93.09123728915964-98.32555896330294L 95.69906059968464-95.42568696938969Q 96.52821467790284-94.50367638670959  95.58475194748323-93.93765688500568Z"></path><path text="Cabs" fill="#ffa800" space="preserve" text-anchor="middle" offset="0.5" font-scale="contain" font-size="48" font-family="Allan" transform="matrix(1.261411428451538, -0.7520348429679871, 0.7520348429679871, 1.261411428451538, 317.0268249511719, 335.0595397949219)" data-fl-textpath="" path="M-112.37798474396412 -8.936908913429477C-58.49082013484362 80.52989617302177 62.76029291340258 65.66109120796034 100.787333022939 -18.32029668009062" letter-spacing="5" font-weight="700" font-style="normal" stroke="#000000" stroke-width="1" data-uid="o_f23n2d3kg_7" d="M-20.64083060138605 26.657430434183173L-20.64083060138605 26.657430434183173Q-20.781908879236607 27.488452046127605 -21.88399558808691 27.639133452331247L-21.88399558808691 27.639133452331247L-26.177956016076344 27.796308014079628Q-26.52245708466988 27.811107126820357 -26.894451322605008 27.571064866076412L-26.894451322605008 27.571064866076412Q-27.51003653266499 27.113621045312144 -27.362280526064588 26.377232450537957L-27.362280526064588 26.377232450537957Q-27.278916954814736 25.85144683359083 -27.215446671810415 25.403148358046522L-27.215446671810415 25.403148358046522Q-26.977007008872082 23.7505302753856 -27.227053047420522 21.869260231344544L-27.227053047420522 21.869260231344544Q-27.473391432023476 21.702774795731685 -27.74459642693334 21.63314828687234L-27.74459642693334 21.63314828687234Q-30.541593500526886 20.946047588059447 -35.79906219270668 30.405832096744053L-35.79906219270668 30.405832096744053Q-38.193449427734535 34.70548438137542 -39.03891417816941 37.99868789099521L-39.03891417816941 37.99868789099521Q-39.976385386739835 41.65026942960303 -38.90359806280242 42.297360889598615L-38.90359806280242 42.297360889598615L-38.496790570437625 42.40180065288763Q-38.012896586121414 42.20597774324072 -37.52599443787969 41.91800847745426L-37.52599443787969 41.91800847745426Q-36.34748263797678 41.18813866886534 -33.97072469249002 38.52552309981195L-33.97072469249002 38.52552309981195Q-33.494430589269875 37.99737167527754 -33.17297087085137 37.79081986716563L-33.17297087085137 37.79081986716563Q-32.6299185246934 37.444995996774466 -31.867340517814682 38.053744535520046L-31.867340517814682 38.053744535520046L-28.556030890960088 40.63833900179519Q-28.377493755084593 40.78741781019322 -28.294111139274168 41.025634810805286L-28.294111139274168 41.025634810805286Q-28.092392755219656 41.727852507488045 -28.887920667275022 42.4941000791911L-28.887920667275022 42.4941000791911Q-32.289399033652685 45.729906767339315 -34.66894248073871 46.915433225681774L-34.66894248073871 46.915433225681774Q-37.82700786211666 48.47925004581837 -41.50764707875054 47.53431885415587L-41.50764707875054 47.53431885415587Q-42.873357945975215 47.183699648828465 -44.16723543931785 45.829417170088746L-44.16723543931785 45.829417170088746Q-45.513994215203795 44.39961270808209 -45.9365610617767 42.18497114336389L-45.9365610617767 42.18497114336389Q-46.404949857252255 39.545593956171246 -45.5022919031115 36.02961491501835L-45.5022919031115 36.02961491501835Q-44.51011415186588 32.164943737552775 -41.876867559887714 27.296831949001138L-41.876867559887714 27.296831949001138Q-38.66459150808884 21.379756441029365 -34.88169376254811 18.42770890638788L-34.88169376254811 18.42770890638788Q-30.043453409405956 14.662548845351047 -25.839775988303046 15.741759732670848L-25.839775988303046 15.741759732670848Q-21.829816420707182 16.771237399376837 -20.76481355107095 20.183241046453816L-20.76481355107095 20.183241046453816Q-19.96606139884377 22.742243781761548 -20.64083060138605 26.657430434183173ZM-12.869311991883475 51.37461748322707L-13.972510652104535 48.37897853367283L-13.942533798441008 48.38015677152465L-14.033816233072745 48.15639905181937L-14.494685034803922 48.67870159593617Q-15.383696562948503 49.65453893014 -16.00915486895911 50.290464953701175L-16.00915486895911 50.290464953701175Q-17.422304509556117 51.615986772940886 -18.5014712414431 51.573570210275335L-18.5014712414431 51.573570210275335L-18.831216631741903 51.560609593905305Q-19.628635666349602 51.47922849508421 -21.10853559515296 49.919902935514365L-21.10853559515296 49.919902935514365Q-22.847230320311073 48.07018926775187 -22.762789940930574 45.9218480885324L-22.762789940930574 45.9218480885324Q-22.59862213357686 41.74507314474759 -19.384525486741264 34.065380263857094L-19.384525486741264 34.065380263857094Q-17.283334510871335 28.9839831643457 -15.215187930922738 27.544097848132314L-15.215187930922738 27.544097848132314Q-13.569292888128441 26.407863053688338 -11.420166217007763 26.472318863959813L-11.420166217007763 26.472318863959813Q-9.401724736996917 26.551653545982422 -7.623800891150044 27.912530762475175L-7.623800891150044 27.912530762475175L-7.518160492135183 27.516374093850274Q-7.356274735138067 26.962304602106258 -7.1889360092043875 26.778735130780298L-7.1889360092043875 26.778735130780298Q-6.814682165069599 26.423159456485312 -6.35503707556218 26.441225770213233L-6.35503707556218 26.441225770213233L-3.3573517092094396 26.559049555395323Q-1.6886401886064122 26.62463812914669 -2.098853024407707 28.14970384226985L-2.098853024407707 28.14970384226985L-7.93157312743023 45.163753219175895Q-7.246161114092567 44.53018367131835 -6.851703590687489 43.915201344556735L-6.851703590687489 43.915201344556735Q-6.352610270330039 43.18423906264708 -5.669645681439892 43.63140723047895L-5.669645681439892 43.63140723047895L-3.6546562279390487 45.07165634166784Q-2.99560366766399 45.61796186314358 -3.377319684860309 46.16339094397424L-3.377319684860309 46.16339094397424Q-4.042573493299617 47.04794584354633 -4.7742385800650275 47.83982096047359L-4.7742385800650275 47.83982096047359Q-8.450977599198675 51.75844191499065 -12.039997848231154 51.91760740130862L-12.039997848231154 51.91760740130862Q-12.581544943927684 51.9463605427484 -12.869311991883475 51.37461748322707L-12.869311991883475 51.37461748322707ZM-9.02430823598058 32.48105122068434L-8.766600728733774 31.780632174178166Q-8.855745797823143 31.75711289151368 -8.9537049136152 31.703224009235058L-8.9537049136152 31.703224009235058Q-9.803222736537812 31.419640743620135 -10.393553017155064 31.41645330164334L-10.393553017155064 31.41645330164334Q-10.933136383098557 31.395245020310565 -11.241152584696577 31.59330061743705L-11.241152584696577 31.59330061743705Q-12.085262913054565 32.19060937642135 -13.53424338390068 35.44621309848375L-13.53424338390068 35.44621309848375Q-15.379471472115569 39.61696042989366 -16.197978888337058 43.12752243754862L-16.197978888337058 43.12752243754862Q-16.369290548148744 43.921406758600845 -16.409086050577443 44.17003563461176L-16.409086050577443 44.17003563461176Q-16.423224904799294 44.52975787857408 -16.14344093727304 44.540754765191075L-16.14344093727304 44.540754765191075Q-15.973572099846384 44.547431446351396 -15.831716386330221 44.50296846688735L-15.831716386330221 44.50296846688735Q-14.94667779206365 44.137445982409794 -13.42470031047499 41.825437213927934L-13.42470031047499 41.825437213927934Q-10.778125728146334 37.63614813579403 -9.02430823598058 32.48105122068434L-9.02430823598058 32.48105122068434ZM 9.885620881920829 15.334109880593429L 9.885620881920829 15.334109880593429Q 9.885620881920829 15.334109880593429  8.737826583970591 29.342245668398775L 8.737826583970591 29.342245668398775L 9.544718847446905 27.937850825364215Q 10.227241002730883 26.757357916640693  10.697279033691803 26.05909990598104L 10.697279033691803 26.05909990598104Q 11.807840991625662 24.471443728595606  12.872688133497931 24.29116459933639L 12.872688133497931 24.29116459933639L 13.198058093514458 24.23607930984052Q 13.983651063189885 24.143647248322107  15.76229158521844 25.36386767652268L 15.76229158521844 25.36386767652268Q 17.82779815276916 26.900644374486582  18.203379672059192 29.119075920053806L 18.203379672059192 29.119075920053806Q 18.891111165159163 33.18127057238135  17.335172957206602 41.244120955033466L 17.335172957206602 41.244120955033466Q 16.30344498922771 46.652220195995135  14.595091715290852 48.48307493939484L 14.595091715290852 48.48307493939484Q 13.216181286423108 49.923458926101084  11.10135445202718 50.3119270206969L 11.10135445202718 50.3119270206969Q 9.109695908895716 50.64911576245951  7.065311035668068 49.65644739380966L 7.065311035668068 49.65644739380966L 7.062284156120359 49.758382853784106Q 6.944947350017443 50.80262041005833  5.843999927506559 51.009295935621076L 5.843999927506559 51.009295935621076L 2.2846497588409207 51.611895617681974Q 1.7719455794209393 51.698696679917894 1.4180425376350634 51.525339715781165L 1.4180425376350634 51.525339715781165Q 0.7728889424284517 51.24915709758809 0.831379196828891 50.33658989998553L 0.831379196828891 50.33658989998553L 3.6360872110741442 16.341447409405674Q 3.7452335726158283 15.308738800086367  4.84451174392987 15.092203578765544L 4.84451174392987 15.092203578765544L 8.68979308957973 14.441195611996154Q 9.912395363581222 14.234208463587425  9.885620881920829 15.334109880593429ZM 7.521727010317895 44.92385989244379L 7.411801591661256 45.65243137303656Q 8.43313706544863 45.814214715762326  9.083876985481684 45.704044136770584L 9.083876985481684 45.704044136770584Q 9.616300556417817 45.613904572140974  9.873698651632688 45.33705403379987L 9.873698651632688 45.33705403379987Q 10.577030878393758 44.579014602899804  11.316128876546227 41.096783400189814L 11.316128876546227 41.096783400189814Q 12.141360016786598 37.22470468647833  12.354199340065282 33.03032756675408L 12.354199340065282 33.03032756675408Q 12.379037622138906 32.45815358993966  12.315294453812829 31.961830299642145L 12.315294453812829 31.961830299642145Q 12.2618784155138 31.646320035383688  11.961079789180971 31.666818484014797L 11.961079789180971 31.666818484014797Q 11.773745569777514 31.698534256754844  11.713073955455204 31.75951749392314L 11.713073955455204 31.75951749392314Q 10.922050472376325 32.29913017837168  9.907726512623546 34.874580994184605L 9.907726512623546 34.874580994184605Q 8.176961476870042 39.50850507545884  7.521727010317895 44.92385989244379L 7.521727010317895 44.92385989244379ZM 26.689841840944197 19.275017080959213L 26.689841840944197 19.275017080959213Q 26.689841840944197 19.275017080959213  27.439301724876366 18.9951780515577L 27.439301724876366 18.9951780515577Q 28.94758974128986 18.432002004887156  30.75308588373515 18.750567036890317L 30.75308588373515 18.750567036890317Q 33.138930065398654 19.1940166290904  34.74837346322359 20.759964249286462L 34.74837346322359 20.759964249286462Q 34.83019458464454 20.836156795440388  34.89790291188811 20.96031629939348L 34.89790291188811 20.96031629939348Q 35.380224578796145 21.708892153686858  34.96391944122941 22.280635131287404L 34.96391944122941 22.280635131287404L 33.3782685822766 24.58059412081356Q 32.854047322333656 25.320723886884245  31.973393828025696 24.848972444954082L 31.973393828025696 24.848972444954082Q 29.895296317328537 23.62880412212551  28.393361932425904 23.83735412439629L 28.393361932425904 23.83735412439629Q 28.12019448132517 24.163512895026685  27.918996532267023 24.911122007661618L 27.918996532267023 24.911122007661618Q 27.497501608930495 26.669656064653843  28.039689728395924 28.121734589772416L 28.039689728395924 28.121734589772416Q 28.613359738669025 29.658127351833365  30.06507573566568 29.37225908835525L 30.06507573566568 29.37225908835525L 30.900980443939723 29.20958358717179Q 31.85630011053863 29.023668728676416  32.60877461150909 29.094957755807144L 32.60877461150909 29.094957755807144Q 34.805485762911964 29.20340183034456  36.015789565073504 32.44481582835119L 36.015789565073504 32.44481582835119Q 37.34715554213019 36.153395696054716  36.04902016322578 40.39547590958637L 36.04902016322578 40.39547590958637Q 34.88839389552034 44.233958248572975  32.04981458512725 45.29384857243121L 32.04981458512725 45.29384857243121L 31.478351423628975 45.50722583234986Q 29.83890792752736 46.119373709165664  28.076755039960307 45.773950489275755L 28.076755039960307 45.773950489275755Q 26.0139341691816 45.33798024363994 24.572877559826786 43.87994874582008L 24.572877559826786 43.87994874582008Q 23.737297248987 42.985742089539286 24.03454995635079 42.18091861326333L 24.03454995635079 42.18091861326333L 25.36725810447649 39.975405296160176Q 25.52101059725236 39.672485882841706  25.76945044786585 39.451629276358794L 25.76945044786585 39.451629276358794Q 26.427962647242524 38.92821578467934  27.054426872962665 39.5482501175133L 27.054426872962665 39.5482501175133Q 27.365347134362274 39.83778179289821  27.886992566764153 40.09132871726185L 27.886992566764153 40.09132871726185Q 29.36299092410649 40.84248039909629  30.47182139806666 40.524526031273986L 30.47182139806666 40.524526031273986Q 30.87976315943034 40.07332372705171  31.02262102979408 39.19805712259617L 31.02262102979408 39.19805712259617Q 31.302466509839924 37.460390150101745  30.629968809637496 35.45920379115802L 30.629968809637496 35.45920379115802Q 29.98159449638579 33.77991502804568  27.962034168465674 34.203088847995815L 27.962034168465674 34.203088847995815L 27.359089116159726 34.332151870972105Q 26.709302821108015 34.47870483328598  26.126461666368385 34.46149471005065L 26.126461666368385 34.46149471005065Q 23.96834922421553 34.37066141755814  22.9259488396949 31.578923349910816L 22.9259488396949 31.578923349910816Q 22.628740713663095 30.697182271237104  22.47917313431092 29.696267919653156L 22.47917313431092 29.696267919653156Q 21.964371154893442 26.25920828648007  23.28091863346191 23.06701425467765L 23.28091863346191 23.06701425467765Q 24.563249420286674 20.069060326886003  26.689841840944197 19.275017080959213Z"></path><g transform="matrix(0.11787104606628418, 0, 0, 0.11787104606628418, 158.0438232421875, 119.29023742675781)" data-uid="o_f23n2d3kg_8"><path fill="rgba(236,160,28,1)" d="M377.54 1412.9c-6 25.49 8.1 52.42 28.39 68.51s56.84 37.8 81.58 44.89c152.49 43.7 284.23 46.08 432.43 27.32 73.5-9.31 148.45-30.12 204.76-79.19 75-65.36 105.23-179.13 72.9-274.16-19-55.76-59-105.11-112.14-128.51-28.92-12.74-63.14-16.6-94.29-13.24-17.95 1.93-87.89 19.78-71.89 51.15 4.53 8.89 15.11 13 24.93 13.06s19.37-3 29-4.81c54.73-10.35 124 16.49 150.68 66.29s26.56 125.9 5.32 178.37c-41.67 102.93-162.17 118.78-260.15 123-104.4 4.5-179.59-3.46-282.19-23.67-37.32-7.36-80.83-22.42-90.32-60Z" transform="matrix(1, 0, 0, 1, 0, 0)" data-uid="o_f23n2d3kg_9"></path><path fill="rgba(236,160,28,1)" d="M807.58 1183.15a903.23 903.23 0 0 1-63.46 155.58c-24.91 47.62-44.5 98.42-102.34 104.58-127.14 13.28-255.84 22.85-378.71 1-35.75-6.37-71.38-15.62-101.6-34.54-37.63-23.59-49.72-61.52-74.1-95.53-31.16-43.57-56.38-90.23-74-141.88C4.83 1147-2 1120.34.56 1092.82S17 1036.6 41 1021.83c27.1-16.58 61.18-12.11 86.29 3.08s42.94 39.43 60.34 63.13q-19.23-96.93-38.45-193.95c-18-90.33-36.27-182.69-30.12-277.48 5.11-78.11 43.46-147.51 89.83-213.19C262.14 328 336.33 271.54 400.63 207c13.34-15.73 26.37-31.88 39-48.25q17-22 33.13-44.85c21.24-30.04 49.7-50.66 84.61-62.66 19.8-6.81 42.41-11.38 55.33-28.28 7-9 12.4-22.42 23.66-22.95 8.23-.32 14.9 6.91 18.76 14.45a61.14 61.14 0 0 1 3.54 45.38c20.74 12.65 49.81 8.83 66.7-8.82 8.13 8.18 7.19 23.81-2 30.82 17.51 6.49 31.89 20.09 42.62 35.6s18.15 33.16 25.55 50.56q19.54 46.07 39.08 92.24a8.89 8.89 0 0 1 .63 5.53 13.49 13.49 0 0 0-4.9-7.33 12.75 12.75 0 0 0-11.34-1.68c-1.88.65-3.54 1.71-5.42 2.35a5.93 5.93 0 0 1-5.63-.64c-1.56-1.28-1.87-3.61-2.5-5.53s-2.29-4.14-4.27-3.82c-10.21 1.48 2.81 15.62 4.38 18.17 5.94 10 5.52 23.59 0 33.9-.42.74-.84 1.49-1.36 2.23-4 3.83-9.9 5.64-14.48 3-5.43 7.33-11.15 14.88-19.18 19s-17.71 5.21-25.84 1.27c-6.78-3.29-11.57-9.67-17-15.09-17.09-17-53.77-36.88-77.85-29-27.8 9.09-36.82 46.78-44.17 71.75C591.46 389 587 425.52 600.2 460.07c20 52.39 29.7 107.65 32.83 164.93 3.12 58-16.68 115.31-13.86 173.23 2.29 45.27 1.87 103.93 24.38 143 25.63 44.43 57.11 7.33 92.54-10.09 25.95-12.65 56.8-2.24 74 18.38 52.1 62.64 18.23 165.62-2.51 233.63Z" transform="matrix(1, 0, 0, 1, 0, 0)" data-uid="o_f23n2d3kg_10"></path><path fill="#230857" d="M826.31 258.48a12.54 12.54 0 0 0-11.31-1.69c-1.86.64-3.56 1.72-5.43 2.32s-4.1.65-5.62-.61-1.91-3.61-2.55-5.59-2.21-4.1-4.24-3.8c-10.19 1.53 2.83 15.66 4.36 18.23 5.94 10 5.59 23.51.05 33.84-.42.77-.89 1.52-1.35 2.27a15.87 15.87 0 0 0 3.33-4.45c3.28-6.53 5.52-12.78 5.05-20.1 9.53-2.42 21.1-5.83 22.61-13.06a13 13 0 0 0-4.9-7.36zm-66.22 40.69c-11.48-1.91-22.74-7.94-28.87-18s-6-24.43 2.12-33c13.2-14 36-15.72 39.48-38.32 3.55-23.15-14.38-44.07-31.13-57.28a122.26 122.26 0 0 0-19.12-12.34c-1.85-1-11.54-4.28-7.63-8 3.41-3.23 13.45 5.51 16.29 7.35a146.26 146.26 0 0 1 19.37 14.64c11.26 10.26 20.56 23.39 23.76 38.44s-.57 32.12-11.76 42.46c-6.29 5.81-14.37 9.18-21.06 14.48s-12.19 13.9-9.91 22.23c1.91 7 8.61 11.41 15.11 14.38a91 91 0 0 0 18 6c5.92 1.3 13.22.35 18.82 2.12 6.36 2 2.91 3.73-2.51 4.88-6.62 1.41-14.34 1.05-20.96-.04z" transform="matrix(1, 0, 0, 1, 0, 0)" data-uid="o_f23n2d3kg_11"></path><path fill="#230857" d="M732.26 155.74c-.21 4.83-1.47 10.18 1.26 14.13s7.92 4.53 12.54 4.51 9.66-.27 13.33 2.58c.93.72 1.94 1.67 3.08 1.43a2.33 2.33 0 0 0 1.61-2.25 6.32 6.32 0 0 0-.78-2.86c-4.72-10.08-12.85-18-20.81-25.69-2-1.91-8.55-8.85-11.66-6-1.7 1.63 1.55 11.29 1.43 14.15zM649.09 14.68c-1.09-2.37-2.63-4.9-5.14-5.53s-5.3 1.11-6.68 3.44-1.75 5.12-2.12 7.82C632.5 39.58 628 58.93 617.8 75.27A75.31 75.31 0 0 1 606 89.83a52.72 52.72 0 0 0 35.18-17.72c13.17-15.4 16.43-38.91 7.91-57.43zm102.22 240.5C735 244.73 712 230.8 688.79 228.75c-2.3-.21-2.63 3.42-.31 3.44 20.24.11 46.59 14.37 62.31 24.46 1.87 1.2 2.4-.26.52-1.47zm-4.79 5.82c-17.58-6.46-45.21-11.59-64.21-11.57-2.32 0-2.16 3.42.15 3.42 18.38 0 47.07 3.75 64.07 10 2.11.76 2.12-1.08-.01-1.85zm-.27 7.45c-19.2-6.93-49.77-8.14-69.53-2.1-2.24.69-.93 3.82 1.3 3.14 18.78-5.74 49.46-5.78 67.72.81 2.13.77 2.64-1.08.51-1.85zM381.94 374.14c-3.45-5.3-8.4-6.72-13.51-6-18.95-12.1-32.22 25.47-32.58 38.18-.25 8.86 2.92 20.17 14.57 20.34 16.7.25 24.68-15.91 30.58-27.67 4-7.99 6.14-16.86.94-24.85zm-30.16 42.46a4.87 4.87 0 0 0 .18-2.21v-.82a8.45 8.45 0 0 0 3.27-.53 28.46 28.46 0 0 0 5.92-3.21c1-.41 2-1 3-1.46a32.65 32.65 0 0 1-3 3.71c-2.83 2.92-6.43 4.75-9.37 4.52zM432 442.26c-.06-.75-.05-1.52-.16-2.25-.44-3-2.93-4.33-5.61-4.67h-.31a23.71 23.71 0 0 0-5.72-6c-2.34-1.7-5.4-.71-7.65 1a22.81 22.81 0 0 0-3.85 3.82c-5.44 1.16-10.33 5.12-12.7 11.7-4.16 11.59-.18 25.15 11.34 26.54.8.42 1.52 1 2.35 1.35 3.44 1.52 6.34 2.83 10.09.62a18.53 18.53 0 0 0 2.27-1.88 16 16 0 0 0 5.78-2c3.74-2.45 4.19-7.19 5-11.15.96-5.5 1.17-11.98-.83-17.08zm136-248.89c-.53-4.78-2.94-9.1-6.91-11.15-.34-.33-.52-.7-.94-.94a5.72 5.72 0 0 0-4.79-2.85c-3.94 0-8.3.48-10.71 4.41a6.87 6.87 0 0 0-1 4.08 20 20 0 0 0-2.21 3c-.35.51-.79 1-1.1 1.5s-.47 1-.72 1.44-.56 1-.75 1.5c-2.51 5.26-3.82 11.27-2.49 16.61 1.6 6.43 8.23 11 15.06 9a13.82 13.82 0 0 0 6.89-5.05 24.32 24.32 0 0 0 9.67-21.55zm-33.69 116.89c-2.21-3.76-6.73-3.89-9.8-1.29-.14.13-.21.25-.35.37a4.82 4.82 0 0 0-1.14-.06 12.27 12.27 0 0 0-5.08-1c-10.55.12-16.49 10.82-16 20.52.29 6.09 7.33 7.64 10.7 4.62a24.22 24.22 0 0 0 4.14 6.48 6.06 6.06 0 0 0 6.06 1.63c13.74-4.6 18.91-18.53 11.47-31.27zM344.12 504.47c-9.71-15.42-29.77-12.24-36.08 6.41-4.92 14.53-2.92 37.91 15.33 38.48 7.46.24 12.35-3.11 15.28-8.05a23.85 23.85 0 0 0 8.9-11.51c2.97-8.6 1-18.3-3.43-25.33zM320.6 512c2.28-4.85 5.1-5.63 7.73-4.43a7.62 7.62 0 0 0-2.69 5.51 18.44 18.44 0 0 0-7.57 10.92 34.85 34.85 0 0 1 2.53-12zm246.97 159.17c3.7-2.54 5.39-8 .69-10.17-7.21-3.28-15.89-1.75-22.8 2.66-11 4.43-15.59 18.08-10.44 26.55 4.85 13.64 23.63 18.85 32.68 3.49a22.31 22.31 0 0 0-.13-22.53zm-209.4-6.91a19.17 19.17 0 0 0-5.49-11.87 10.91 10.91 0 0 0-8.94-6.85 14.43 14.43 0 0 0-6.05.55 24.62 24.62 0 0 0-19.36 7.68c-7.88 8.45-13.11 23.45-5 32.18 5.59 6 12.76 4.55 19 .45a16.55 16.55 0 0 0 13.81.26c8.24-3.78 12.86-13.93 12.03-22.4zm85.16 36.49c-1.23-7.28-4-15.86-11.17-18.73-5.32-2.12-11.26-.17-15.75 3.88a26.49 26.49 0 0 0-7.71 12.79 23.32 23.32 0 0 0-3.68 6.25c-3.25 8.26-2.41 19.19 5.62 23.19a13.61 13.61 0 0 0 6.6 1.28c3.9 3.22 8.83 5.05 14 3.89 14.31-3.17 13.86-22.09 12.09-32.55zm104.82 68.62a52.17 52.17 0 0 0-1.15-10.83c-.43-2-1.87-4.06-4-4.44-14.73-2.66-24.5 5.93-29.19 17.64a32.49 32.49 0 0 0-5.81 26.85c1.37 5.63 4.87 10.46 9.6 12.54a15.37 15.37 0 0 0 9 5.36c10.42 1.89 19-6.41 22.59-16 3.81-9.86 4.09-22.44-1.04-31.12zm-23 29.19a32.13 32.13 0 0 1-1.27-4.11 35.05 35.05 0 0 1-.68-8.3 5.53 5.53 0 0 0 2.13-.74 14 14 0 0 0 6.32 5.69 22.23 22.23 0 0 1-1.55 2.74c-1.82 2.53-3.5 4.08-4.99 4.72zM474 869.32c-2.28-7.56-8.05-12.85-17.16-11.52-8.41-2-18.5.63-19.69 10.93a21 21 0 0 0 .43 6.78 28.23 28.23 0 0 0-.27 9 21.65 21.65 0 0 0 .4 4.73c1.95 8.38 8.68 12.63 15.91 12.75a12.05 12.05 0 0 0 8.65 1.64c16.52-3.31 19.32-22.95 11.73-34.31zm99.13 36.82c-.53-21.37-21.79-26.25-36.43-10.39-12.8 13.88-20.37 41.66 0 49.39.4.15.77.19 1.17.31a15.32 15.32 0 0 0 7.44 2.69c19.54 2.06 28.19-27.21 27.82-42zm-164.64 102.7c.28-17.59-9.92-36.4-25.82-38-2.05-.21-4.54 1.35-5.65 3.15a41 41 0 0 0-2.35 4.83 5.79 5.79 0 0 0-6.5 3c-9.74 16.1-7.64 57.06 14 57.49 9 3.61 21.29-2.24 26-11.39 3.24-6.55 2.77-13.17.32-19.08zm242.73 21.67a18.33 18.33 0 0 0 6.12-13.34c.13-4.67-1-12.94-4.57-15.84-3.74-3.07-10.84-1.75-15.22.22a21.62 21.62 0 0 0-2.44 1.36c-21.3 4-24 44.14-2.62 48.61 4 .84 7-2 8-5.23 4.99-2.71 8.66-9.63 10.73-15.78zm-162.35 426.41a18.48 18.48 0 0 0-4.67-13.92c-3.09-3.46-9.55-8.59-14.07-8.17-4.79.44-9 6.4-10.81 10.93a21.68 21.68 0 0 0-.83 2.7c-12.6 18 12.77 48.74 31.18 36.86 3.43-2.21 3.68-6.44 2.23-9.45 1.73-5.48-.33-13.06-3.03-18.95zM546 1169.19c-2.9-10.86-11.08-20.64-21.92-22a23.68 23.68 0 0 0-3.92-1.28c-2-.37-4.64-.21-6.21 1.63-.32.38-.53.84-.83 1.23a8.39 8.39 0 0 0-4.16 4.68c-.2.25-.44.48-.64.74a13.05 13.05 0 0 0-8 5.74c-8.36 12.76 4.11 36 13.87 42.7a14.6 14.6 0 0 0 5.41 2.3c1 2.34 3.18 3.88 6.47 2.71 16.8-5.96 24.29-22.17 19.93-38.45zm101.19-.94a15.3 15.3 0 0 0-8.9-8 16.34 16.34 0 0 0-9.09-2.53 6.49 6.49 0 0 0-6 4.21 24 24 0 0 0-10.97 12.07c-4.56 11.27.61 21.91 9.41 24.17a5.53 5.53 0 0 0 7.59 1.32c16.77 3.26 23.67-19.55 17.96-31.24zm-34.03-70.62c-.41-2.46-2.93-5-5.6-4.67-9.8 1.08-13.19 6.5-16.08 15.48-1.57 4.86 2.21 8 6 7.88 1.5 1.94 3.58 3.23 7.12 3.76 3.22.48 6.84-.78 8-4.44 2.14-6.43 1.61-11.72.56-18.01zm583.04 164.71c-.41-2.45-2.93-5-5.6-4.66-9.8 1.09-13.19 6.51-16.09 15.48-1.56 4.86 2.22 8 6 7.88 1.49 2 3.57 3.23 7.11 3.75 3.23.48 6.85-.77 8.05-4.43 2.1-6.43 1.58-11.72.53-18.02zm-176.8 237.26c-.41-2.45-2.94-5-5.61-4.66-9.79 1.08-13.18 6.5-16.08 15.48-1.57 4.86 2.21 8 6 7.87 1.5 2 3.58 3.24 7.12 3.76 3.22.48 6.84-.77 8.05-4.44 2.12-6.43 1.56-11.71.52-18.01zm-557.88-400.27c-5.79-.52-12.27 1.46-15.91 6.82-4.86 7.16-2.36 15.75.88 22.29 2 4 6.44 3.59 9.33 1.25a24.19 24.19 0 0 0 12.36 4 6.84 6.84 0 0 0 5.66-3.15c8.6-13.54 3.67-29.77-12.32-31.21zm650.69 320.76c-4.92-.45-10.44 1.24-13.54 5.81-4.14 6.1-2 13.4.74 19 1.69 3.4 5.49 3.05 7.95 1.06a20.49 20.49 0 0 0 10.52 3.43 5.78 5.78 0 0 0 4.81-2.67c7.31-11.64 3.13-25.41-10.48-26.63zm-615.92-169.27a6 6 0 0 0-8.65-5.87c-5.08-.7-10.35 1.84-14.72 5.26-6 4.72.07 12.42 6.19 10a10.66 10.66 0 0 0 .06 1.69c1.39 6.4 7.19 8.77 13.09 9.4 3.28.35 6.58-3.2 6.79-6.36.32-5-.32-10.15-2.76-14.12zm117.44 6.7c-.25-2.91-3.07-4.42-5.61-4.66-7-.67-12.83 2.12-18.15 6.79a16.3 16.3 0 0 0-7.6 8.78c-3 8.23 1.81 13.51 9.37 15.43 15.26 3.87 23.04-13.81 21.99-26.34zm-111.35 80.12c5.1-5.55 7.06-14 2.73-19.87-3.21-4.32-8.06-6.23-13.25-6.44h-.31a25.25 25.25 0 0 0-4.81.31 6 6 0 0 0-7.52 2.35c-4.1 2-4.27 6-2.42 8.84a29.85 29.85 0 0 0-.35 4 13.35 13.35 0 0 0 1.28 7.76 14.84 14.84 0 0 0 2 3c.06.08.07.18.14.26s.38.31.55.5a15.14 15.14 0 0 0 1.64 1.46 12.85 12.85 0 0 0 1.25 1 15.62 15.62 0 0 0 3.18 1.49l.2.06a13.64 13.64 0 0 0 10.61-.69c.38-.19.71-.48 1.08-.7s.63-.41.94-.61a20 20 0 0 0 2-1.59c.36-.44.73-.77 1.06-1.13zM302.54 1061.9c-21.49 9.16-9.14 36.51 7.59 39.53a6.92 6.92 0 0 0 6-1.91 29.42 29.42 0 0 0 4.46-.39 7 7 0 0 0 4.74-4.44c5.06-13.99-4.97-40.39-22.79-32.79zM286.9 907.93c-.58-2.41-2.8-5-5.6-4.67-15.26 1.82-22.74 15.66-24 29.92a5.15 5.15 0 0 0 4.37 5.93c1.93 3.89 6.4 5.47 10.9 4.22 15.03-4.17 17.23-23.48 14.33-35.4zm31.27-142.12a6 6 0 0 0-4.93.12c-.33.08-.63 0-1 .15-10.89 3.31-16 16.6-13 26.37 1.78 5.71 9.34 5.14 11.8 1.19a13.17 13.17 0 0 0 16.2-9.59c2.17-8.05-1.75-16.81-9.07-18.24zM247 604.64a42 42 0 0 0 1.1-12.09c-.21-3.39-4.27-5.3-7.28-4.44a27.13 27.13 0 0 0-11.27 6.6 17 17 0 0 0-6.8 2.47c-8.42 5.48-11.24 16.25-12.69 25.27-1.08 6.73 7.13 7.79 10.8 3.44a26.84 26.84 0 0 0 5 10.44c2.23 2.69 6.11 2.12 8.82 0 9.71-7.55 16.58-21.33 12.32-31.69zm1.48 111.79a6.77 6.77 0 0 0-4.51-.71c-1.92-.88-4.3-.68-6.44 1.5-.58.6-1 1.16-1.52 1.75a6.69 6.69 0 0 0-1.63 1.86c-4.82 5.78-7 11.23-4.32 19.17.87 2.56 4.29 3.57 6.79 2.92 8.17-2.13 14.07-6.72 15.86-15.39 1.07-5.14.42-8.74-4.23-11.1zm330.8-177.49c-4.78-3.3-11.72-3.45-17.28-.92-.48.22-.86.53-1.31.77a6.18 6.18 0 0 0-4.16 2.87c-8 6.91-10.38 18.53-7 28 1.09 3.07 5.56 4 8.33 2.28a42.65 42.65 0 0 0 5.95-4.35c7.8 1.92 15.38-4 17.87-12 1.74-5.59 2.41-13.32-2.4-16.65zM542.7 423.33a30.09 30.09 0 0 0-9.31-16.53c-2.76-2.48-6.41-1.64-8.83.44a24.45 24.45 0 0 0-9-1.61c-25.46.63-17.18 50.89 8.2 45.61a24.6 24.6 0 0 0 6 4 6.7 6.7 0 0 0 7.64-1c10.6-8.73 10.6-20.92 5.3-30.91zm-29.2 7.35c-.76-2.78-2.1-9.76-.14-12a2.87 2.87 0 0 1 1.48-.34 12.21 12.21 0 0 1 4.65 1.12 22.85 22.85 0 0 1 4 2.31c-.06.06-.12.08-.18.14-4.25 5-6.16 10.23-6.17 15.2a13.41 13.41 0 0 1-3.64-6.43zM378.27 828c-1-7.28-7.3-12.14-13.63-14.46-6.58-2.42-15.14-2.24-21 3.2-8.31 7.7-6.49 20.18-3.84 29.13 2.23 7.54 14.57 4.26 12.31-3.37-.07-.24-.12-.5-.19-.74a18 18 0 0 0 3.65 4.3c1.53 1.31 3.67 2.55 5.92 1.64 8.2-3.27 18.15-9.45 16.78-19.7zm-136.19 178.68C241 994.43 229 984 217.33 994.07c-5.53 4.77-7.19 10.43-6.65 15.93a7.64 7.64 0 0 0-1.46 2.28c-4.61 11.22 3.08 19.7 14.23 17.75s19.64-12.09 18.63-23.35zm-16.71-3.62c3.49-1.5 4.6 5.18 4.27 7.61a7.38 7.38 0 0 1-2.79 4.75c-2.95-3.33-7.09-9.95-1.48-12.36zM307 1371.65a11.28 11.28 0 0 0-5.77-5.39c-1.47-2.35-4.29-3.61-7.55-1.51l-.11.08a23.8 23.8 0 0 0-7 1.44c-5.82 2.2-6 9.79-2.29 12-1.17 6.64 1.57 13.37 8.93 16.81 2.27 1.05 5.58 1.31 7.64-1 5.54-6.17 9.81-14.76 6.15-22.43zM762.51 985.8c-10.58-.33-16.37 9.21-18.38 18.59-.92 4.33 2.22 6.25 5.6 5.94a12.37 12.37 0 0 0 7.79 7.14c9.59 2.92 19.39-7.72 19.47-17.22.01-8.07-6.77-14.25-14.48-14.45zm-508.94 160.75a24.54 24.54 0 0 0-2.93.8 6 6 0 0 0-7 2.73c-.11.17-.18.35-.29.52a19.26 19.26 0 0 0-7.56 9.5 17.55 17.55 0 0 0 8.22 21.15 18.5 18.5 0 0 0 11.79 1.69c8 1.53 17.53-.29 21.09-9 6.11-14.94-9.57-29.43-23.32-27.39zm-109.91-34.81c-5.56-4.32-10.45-3.63-15.08-.29-.12.08-.24.15-.35.24a34.39 34.39 0 0 0-5.24 5 6.85 6.85 0 0 0-.87 8.06 10.46 10.46 0 0 0 .2 2.16c.61 2.38 2.79 5 5.61 4.67 3.72-.48 7.69-.67 11-3 2.87-2 4.44-5.22 6.24-8.15a6.32 6.32 0 0 0-1.51-8.69zm766.73 380.08c-5.56-4.32-10.45-3.64-15.08-.29-.11.08-.23.15-.34.24a33.54 33.54 0 0 0-5.24 5 6.83 6.83 0 0 0-.87 8 10.46 10.46 0 0 0 .2 2.16c.61 2.38 2.79 5 5.61 4.67 3.72-.47 7.68-.67 11-3 2.86-2.05 4.44-5.23 6.24-8.16a6.32 6.32 0 0 0-1.52-8.62zm-542.39-240c-5.35-17.7-24.22-22.9-39.58-9.85-7.68 6.53-11 16.52-7.89 25.53a20.72 20.72 0 0 0 4.94 7.88c2.95 11 11.65 19.25 25.27 15.68 16.95-4.44 21.54-25.17 17.26-39.24zm-15.77 25.11c-4 3.23-7.3 3.06-9.92 1.28a20.2 20.2 0 0 0 9.36-11.32c.59-.39 1.18-.8 1.74-1.22 5.23-3.86 1.56-10-3.45-10.35a12.52 12.52 0 0 0-1.41-1.63 5.51 5.51 0 0 0-2.87-6.23 11.08 11.08 0 0 1 9.34 6.3c2.92 6.16 3.72 17.88-2.77 23.17zm-123.85-41.36a12.23 12.23 0 0 0 .22-2.32c.93-7.4-1.25-14.5-8.64-17.1-5.53-2-11.9.08-14.31 5.68-.38-.49-.76-1-1.15-1.38a6.07 6.07 0 0 0-7.47-1c-12.4 8.12-11.19 20.9-.41 28 10 6.55 25.47 8.14 35.76-1.16a6 6 0 0 0-4-10.72zm485.42-156.16a21.35 21.35 0 0 0-11.13 2.73 5.9 5.9 0 0 0-3.8 1.91c-.4.42-.74.92-1.12 1.37a29.8 29.8 0 0 0-5.2 5.21c-7.69 10.24-4 20.92 4.59 27.49 1.75 1.35 4.28 1 6.26 0 8.75-.14 16.51-9.75 19.38-18.46s1.52-19.57-8.98-20.25zm43.29 73.38c-6-1.93-13.11 2-16.9 7.2a15.87 15.87 0 0 0-3.19 11.33 23.53 23.53 0 0 0-1.28 5.84 5.86 5.86 0 0 0 4 6.13c8.24 2.87 17.76-1.12 22.07-9.55 3.65-7.04 3.35-18.35-4.7-20.95zm-191.37 344.3c-6-1.94-13.11 2-16.9 7.2a15.85 15.85 0 0 0-3.19 11.32 23.26 23.26 0 0 0-1.28 5.85 5.85 5.85 0 0 0 4 6.12c8.24 2.88 17.76-1.12 22.07-9.55 3.65-7.03 3.35-18.34-4.7-20.94zm234.98 3.61c-8.63-2.66-16.09 7.13-20.55 13.59-3.4 4.94.71 9.47 5.11 9.32 3.14 5.92 8.37 12.67 15.84 8.82 5.61-2.88 7.37-10.28 7.51-15.85.14-6.21-1.53-13.9-7.91-15.88zm-163.83-148.85c-9-3.58-17.79-.81-25.16 6.25a6.14 6.14 0 0 0 .36 9.62 5.72 5.72 0 0 0 .79 1.53c9.65 11.58 26.52 4 28-11.27a5.88 5.88 0 0 0-3.99-6.13zm12.29 137.67c-8.94-3.58-17.78-.8-25.15 6.26a6.14 6.14 0 0 0 .36 9.62 5.62 5.62 0 0 0 .8 1.53c9.64 11.58 26.5 4 28-11.28.34-3-1.52-5.13-4.01-6.13zM383.36 1327c-1.86-2.18-4.87-2.19-7.47-1a5.26 5.26 0 0 0-.88.6 5.64 5.64 0 0 0-3.9 6.12l-1.46.62c-7.59 3.37-2.2 14.33 5.34 11 3.61-1.6 6.88-2.82 8.95-6.63 1.84-3.36 1.75-7.95-.58-10.71zm680.9 152.88c-1.86-2.18-4.87-2.19-7.47-1a5.26 5.26 0 0 0-.88.6 5.65 5.65 0 0 0-3.9 6.12c-.48.21-1 .4-1.45.62-7.59 3.37-2.21 14.33 5.34 11 3.6-1.6 6.88-2.83 8.95-6.63 1.83-3.39 1.74-7.98-.59-10.71zm99.96-142.98c-1.86-2.18-4.86-2.18-7.47-1a5.48 5.48 0 0 0-.88.6 5.63 5.63 0 0 0-3.9 6.11l-1.46.63c-7.58 3.37-2.2 14.33 5.35 11 3.6-1.61 6.87-2.83 9-6.65 1.78-3.38 1.69-7.96-.64-10.69zm-916.88-45.39c-8 0-9.13 12.71-1.1 12.71s9.13-12.71 1.1-12.71zM414.17 275.88a55.51 55.51 0 0 0 1.37-7.61c.26-2.77-2.13-5.4-4.58-6.13-5.11-1.52-10.25.07-14.57 3.11-2.6-1.21-5.82-1-7.72 2.26a15 15 0 0 0-1.63 4c-.3.24-.61.44-.9.69-3.12 2.62-2.4 6.15-.14 8.35a15.5 15.5 0 0 0-.19 3.32 10 10 0 0 0 1.56 6 8.12 8.12 0 0 0 1.56 2.17 11.15 11.15 0 0 0 10.07 3.71c6.3-.69 11-6.4 12.75-12.56a46.66 46.66 0 0 0 2.41-7.31zM296.71 402.41c-.71-2.6-2.72-4.74-5.61-4.66-13.68.34-39.44 18.45-22.41 30.84a5.06 5.06 0 0 0 4.84.75 13.55 13.55 0 0 0 12-.21c8.66-4.59 13.57-17.93 11.18-26.72zM278 505.85a5.2 5.2 0 0 0-3.77-4.27c-6.62-1.84-11.39 1.47-14.73 7.65a6.32 6.32 0 0 0 4.86 9.59 6 6 0 0 0 7.76-.73c.14-.14.21-.28.34-.42l1-.06c6.54-.47 8.44-8.96 4.54-11.76zm222-307.57c.34-3.6-2-7.12-6.18-6.41-.26-.15-.43-.33-.71-.47-5.57-2.8-11.24 3.73-9.66 8.22-.06.17-.16.28-.22.46-1.18 3.75 1.08 8.35 5.32 8a22.87 22.87 0 0 0 8.17-2.18c2.61-1.11 4.11-4.97 3.28-7.62zm38.83 1181.51c-8 0-9.14 12.71-1.1 12.71s9.13-12.71 1.1-12.71zm197.41 149.41c-8 0-9.13 12.71-1.09 12.71s9.13-12.71 1.09-12.71z" transform="matrix(1, 0, 0, 1, 0, 0)" data-uid="o_f23n2d3kg_12"></path><path fill="#a17305" d="M377.1 1174c1 1.81 2.41 3.56 4.39 4a5.56 5.56 0 0 0 5.07-1.94 12.2 12.2 0 0 0 2.48-5.14 17.54 17.54 0 0 0-.19-11c-2.17-5.4-8.05-8.68-11.38-2.91a18.1 18.1 0 0 0-.37 16.99Z" transform="matrix(1, 0, 0, 1, 0, 0)" data-uid="o_f23n2d3kg_13"></path><path fill="#230857" d="M379.48 1144.55c-4.91-.52-7.94 2.7-8.8 6.94a4.37 4.37 0 0 0-4.84 2.1c-5 7.91-5.17 19.07-.94 27.39 4.37 8.57 13.37 11.42 21.15 5.35 8.49-6.62 11.41-22.56 6.3-32.19-2.43-4.56-7.65-9.04-12.87-9.59zm5.6 22.38c-.5 6.1-3.54 12.72-7.77 12.71-2.91 0-4.33-4.84-4.85-7.09-1.32-5.67.07-17.56 8.55-15.53 3.3.79 4.45 5.2 4.07 9.91zM452.66 347a5 5 0 0 0-4.59.93c-6.91 5.6-14.71 15.43-13.56 25.05 1.29 10.77 17.22 16.32 25.45 10 4.66-3.56 4.37-9.58 7.14-14.29 2.92-5 8.32-8.3 8.7-14.66.78-13.03-16.39-16.19-23.14-7.03zm7.2 14.59a28.18 28.18 0 0 0-3.95 8.32c-1 3.09-.83 5.21-4.37 5.25-14.91.16-2-15.38 3.34-19.83a4.48 4.48 0 0 0 5.5-2.15c1.25-2.16 5.53-2.27 5.35.76-.14 2.44-4.44 5.69-5.87 7.62z" transform="matrix(1, 0, 0, 1, 0, 0)" data-uid="o_f23n2d3kg_14"></path><path fill="#a17305" d="M509.45 1016.46c.51 2.42 1.52 4.89.95 7.3-.63 2.68-3 4.48-4.68 6.64a14.91 14.91 0 0 0-1.37 15.81 14.34 14.34 0 0 0 13.77 7.41c5.18-.53 9.73-4 12.8-8.3s4.88-9.38 6.59-14.4c3.24-9.5 10.18-31.07-3.67-35.42-12.76-4.02-27.28 7.04-24.39 20.96Z" transform="matrix(1, 0, 0, 1, 0, 0)" data-uid="o_f23n2d3kg_15"></path><path fill="#230857" d="M541.52 990.14c-4.42-2.64-12.44-1-16.51.23-1.55.5-3.37 1.62-3.1 3.25.63 3.66 8.73.68 11.38 2.53s2.64 4.2 2.73 7.09c.23 8.22-4.43 15.52-4.81 23.56-.32 7.07 1.25 16.15-4 21.87-4.63 5.06-13.58 5.93-18.82 1.32-8.88-7.82-1.14-15.46-.5-24.68.27-3.8-1-6.7-1.42-10.37-1.2-9.54 2.57-13.42 10.1-17.51 5.67-3.07.64-11.85-5-8.78-6.33 3.44-13.72 8.23-15.78 15.79-2.34 8.57 3.61 16.2 1.13 24.85-1.94 6.73-5.06 12.6-2.24 19.64 2.62 6.55 9.28 11.46 15.83 13.29 15.26 4.27 28.24-6.42 30.31-21.74.76-5.66 0-11.38.86-17 .7-4.45 2.47-8.37 3.52-12.72 1.19-5 1.3-14.17-1.67-18.68a6.29 6.29 0 0 0-2.01-1.94Z" transform="matrix(1, 0, 0, 1, 0, 0)" data-uid="o_f23n2d3kg_16"></path><path fill="#a17305" d="M427.12 538.39a50 50 0 0 0-12.29 12.12c-3.23 4.83-5.22 10.69-4.66 16.51.37 3.92 2.21 8.05 5.77 9.58 4.31 1.86 9.26-.77 12.56-4.14s5.85-7.62 9.8-10.18c2.88-1.87 6.37-2.75 8.92-5.08 3.41-3.11 4.38-8.53 2.71-12.88-4.09-10.66-14.64-11.92-22.81-5.93Z" transform="matrix(1, 0, 0, 1, 0, 0)" data-uid="o_f23n2d3kg_17"></path><path fill="#230857" d="M455.16 546c-1.71-13.49-13.72-24.79-26.45-16.28-5.34 3.58-.35 12.38 5 8.78 10.09-6.74 14.89 12.66 8 18.76-2.75 2.45-6.68 3.59-9.57 6-3.17 2.62-5.08 5.86-7.75 9-8.29 9.62-12.89 1.47-16.78-6.92-1.63-3.52-4.11-7.21-3.52-11.23.86-6 6.6-10.82 10.85-14.49 4.9-4.23-2.18-11.39-7.05-7.19-6.31 5.45-12.7 12.55-14 21.28-.94 6.65 3.26 13.1 6 18.84 6.25 12.93 17.41 21.29 29.44 9.19 3.95-4 6.28-8.74 11-12 2.91-2 6.32-3.18 8.94-5.62 5-4.53 6.73-11.6 5.89-18.12Z" transform="matrix(1, 0, 0, 1, 0, 0)" data-uid="o_f23n2d3kg_18"></path><path fill="#a17305" d="M225.11 806.77A15.92 15.92 0 0 0 214 819.08c-1 5.67 1.06 11.41 3.39 16.66 2 4.46 4.32 9 8.32 11.74s10.07 2.83 13.06-1c1.91-2.45 2.14-5.8 2.25-8.92.23-6.67 2.5-19.21-.12-25.36-2.28-5.32-10.9-6.77-15.79-5.43Z" transform="matrix(1, 0, 0, 1, 0, 0)" data-uid="o_f23n2d3kg_19"></path><path fill="#230857" d="M245.82 824.17c-.37-6-.07-22.7-9.37-22.36-5.37.19-6.37 7-3.13 9.58.23-.15.61-.09.72.52a4.9 4.9 0 0 0 2.41.53 7.85 7.85 0 0 1-2.41-.21 3 3 0 0 1 0 .52c-.18 1.06.55 2.84.71 4 .43 3.1.59 6.26.75 9.38.24 4.78.71 9.93.11 14.7-.21 1.7-.59 4.46-1.49 5.66-2.12 2.83-4.79 2.38-7 1.37-3.27-1.5-6.8-4.73-9.75-6.81-6.08-4.29-10.15-9.44-6.72-17 2-4.48 5.93-8.27 9-12 4.3-5.2-3-12.75-7.37-7.52-9.63 11.62-20.55 26-7.43 39.82 5.1 5.35 12.5 10.22 18.66 14.16 5.54 3.54 12.05 2 16.61-2.59 7.79-7.86 6.32-21.64 5.7-31.75Z" transform="matrix(1, 0, 0, 1, 0, 0)" data-uid="o_f23n2d3kg_20"></path><path fill="#230857" d="M233.32 811.39c-.26.17-.21.57.72.84v-.32a4.72 4.72 0 0 1-.72-.52Z" transform="matrix(1, 0, 0, 1, 0, 0)" data-uid="o_f23n2d3kg_21"></path></g><g transform="matrix(2.3016719818115234, 0, 0, 2.3016719818115234, 108.69298553466797, 66.52949523925781)" data-uid="o_f23n2d3kg_22"><path fill="rgba(233, 238, 244, 0)" d="M124 64c0-33.1-26.9-60-60-60S4 30.9 4 64c0 23.4 13.4 43.7 33 53.6v6.4h27c0 0 0 0 0 0s0 0 0 0h27v-6.4
				C110.6 107.7 124 87.4 124 64z" transform="matrix(1, 0, 0, 1, 0, 0)" data-uid="o_f23n2d3kg_23"></path><path fill="rgba(0,0,0,1)" d="M94 127H37c-1.7 0-3-1.3-3-3s1.3-3 3-3h57c1.7 0 3 1.3 3 3S95.7 127 94 127z" transform="matrix(1, 0, 0, 1, 0, 0)" data-uid="o_f23n2d3kg_24"></path><path fill="rgba(255, 255, 255, 0.6082089552238806)" d="M39 94h50l-1.9-16.2c-0.6-5-4.9-8.8-9.9-8.8H50.9c-5.1 0-9.3 3.8-9.9 8.8L39 94z" transform="matrix(1, 0, 0, 1, 0, 0)" data-uid="o_f23n2d3kg_25"></path><path fill="rgba(0,0,0,1)" d="M89 97H39c-0.9 0-1.7-0.4-2.2-1c-0.6-0.6-0.8-1.5-0.7-2.3L38 77.5C38.7 70.9 44.3 66 50.9 66h26.3
						c6.6 0 12.1 4.9 12.9 11.5L92 93.6c0.1 0.9-0.2 1.7-0.7 2.3C90.7 96.6 89.9 97 89 97z M42.4 91h43.2l-1.5-12.8
						c-0.4-3.5-3.4-6.2-7-6.2H50.9c-3.5 0-6.5 2.7-7 6.2L42.4 91z" transform="matrix(1, 0, 0, 1, 0, 0)" data-uid="o_f23n2d3kg_26"></path><path fill="rgba(0,0,0,1)" d="M57.7 66v3H70v-3l0 0c0-1.7-1.3-3-3-3h-6.3C59 63 57.7 64.3 57.7 66L57.7 66zM41 127h-5c-1.7 0-3-1.3-3-3v-10c0-1.7 1.3-3 3-3 1 0 2 .5 2.5 1.3C39 111.5 40 111 41 111c1.7 0 3 1.3 3 3v10C44 125.7 42.7 127 41 127zM91 127h-4c-1.7 0-3-1.3-3-3v-10c0-1.7 1.3-3 3-3 .8 0 1.5.3 2 .8.5-.5 1.2-.8 2-.8 1.7 0 3 1.3 3 3v10C94 125.7 92.7 127 91 127z" transform="matrix(1, 0, 0, 1, 0, 0)" data-uid="o_f23n2d3kg_27"></path><path fill="#676f77" transform="matrix(-1, -1.2246468525851679e-16, 1.2246468525851679e-16, -1, 128, 202.76800537109375)" data-type="rect" data-x="39" data-y="88.9" data-width="50" data-height="25" d="M39 88.9H89 V113.9 H39 Z" data-uid="o_f23n2d3kg_28"></path><path fill="rgba(0,0,0,1)" transform="matrix(1, 0, 0, 1, 0, 0)" data-type="rect" data-x="64" data-y="88.9" data-width="25" data-height="25" d="M64 88.9H89 V113.9 H64 Z" data-uid="o_f23n2d3kg_29"></path><path fill="rgba(0,0,0,1)" d="M89 116.9H39c-1.7 0-3-1.3-3-3v-20c0-4.3 3.5-7.9 7.8-8c13.4-2 27.1-2 40.5 0c4.3 0.1 7.8 3.7 7.8 8v20
						C92 115.5 90.7 116.9 89 116.9z M42 110.9h44v-17c0-1.1-0.9-2-2-2c-0.1 0-0.3 0-0.4 0c-13-1.9-26.1-1.9-39.1 0
						c-0.1 0-0.3 0-0.4 0c-1.1 0-2 0.9-2 2V110.9z" transform="matrix(1, 0, 0, 1, 0, 0)" data-uid="o_f23n2d3kg_30"></path><path fill="#676f77" d="M89 94L89 94c3.9 0 7 3.1 7 7v13H82v-13C82 97.1 85.1 94 89 94zM39 94L39 94c3.9 0 7 3.1 7 7v13H32v-13C32 97.1 35.1 94 39 94z" transform="matrix(1, 0, 0, 1, 0, 0)" data-uid="o_f23n2d3kg_31"></path><path fill="rgba(0,0,0,1)" d="M99 117H29c-1.7 0-3-1.3-3-3s1.3-3 3-3h70c1.7 0 3 1.3 3 3S100.7 117 99 117z" transform="matrix(1, 0, 0, 1, 0, 0)" data-uid="o_f23n2d3kg_32"></path><path fill="rgba(0,0,0,1)" d="M96 117H82c-1.7 0-3-1.3-3-3v-13c0-5.5 4.5-10 10-10s10 4.5 10 10v13C99 115.7 97.7 117 96 117zM85 111h8v-10c0-2.2-1.8-4-4-4s-4 1.8-4 4V111zM46 117H32c-1.7 0-3-1.3-3-3v-13c0-5.5 4.5-10 10-10s10 4.5 10 10v13C49 115.7 47.7 117 46 117zM35 111h8v-10c0-2.2-1.8-4-4-4s-4 1.8-4 4V111z" transform="matrix(1, 0, 0, 1, 0, 0)" data-uid="o_f23n2d3kg_33"></path><path fill="#fff" transform="matrix(1, 0, 0, 1, 0, 0)" data-type="circle" data-cx="89" data-cy="101" data-r="4" d="M89,101m-4,0a4,4 0 1, 0 8,0a4,4 0 1, 0 -8,0" data-uid="o_f23n2d3kg_34"></path><path fill="#fff" transform="matrix(1, 0, 0, 1, 0, 0)" data-type="circle" data-cx="39" data-cy="101" data-r="4" d="M39,101m-4,0a4,4 0 1, 0 8,0a4,4 0 1, 0 -8,0" data-uid="o_f23n2d3kg_35"></path><path fill="#fff" d="M58 111h12c1.1 0 2-0.9 2-2v-7c0-4.4-3.6-8-8-8h0c-4.4 0-8 3.6-8 8v7C56 110.1 56.9 111 58 111z" transform="matrix(1, 0, 0, 1, 0, 0)" data-uid="o_f23n2d3kg_36"></path></g></svg>